HIERARCHY
ROOT hip
{
	OFFSET 0.000000 0.000000 0.000000
	CHANNELS 6 Xposition Yposition Zposition Xrotation Zrotation Yrotation 
	JOINT abdomen
	{
		OFFSET 0.000000 3.422050 0.000000
		CHANNELS 3 Xrotation Zrotation Yrotation 
		JOINT chest
		{
			OFFSET 0.000000 8.486693 -0.684411
			CHANNELS 3 Xrotation Zrotation Yrotation 
			JOINT neck
			{
				OFFSET 0.000000 10.266162 -0.273764
				CHANNELS 3 Xrotation Zrotation Yrotation 
				JOINT head
				{
					OFFSET 0.000000 3.148285 0.000000
					CHANNELS 3 Xrotation Zrotation Yrotation 
					End Site
					{
						OFFSET 0.000000 3.148289 0.000000
					}
				}
			}
			JOINT lCollar
			{
				OFFSET 3.422053 6.707223 -0.821293
				CHANNELS 3 Yrotation Zrotation Xrotation 
				JOINT lShldr
				{
					OFFSET 3.285171 0.000000 0.000000
					CHANNELS 3 Zrotation Yrotation Xrotation 
					JOINT lForeArm
					{
						OFFSET 10.129278 0.000000 0.000000
						CHANNELS 3 Yrotation Zrotation Xrotation 
						JOINT lHand
						{
							OFFSET 8.486692 0.000000 0.000000
							CHANNELS 3 Zrotation Yrotation Xrotation 
							End Site
							{
								OFFSET 4.106464 0.000000 0.000000
							}
						}
					}
				}
			}
			JOINT rCollar
			{
				OFFSET -3.558935 6.707223 -0.821293
				CHANNELS 3 Yrotation Zrotation Xrotation 
				JOINT rShldr
				{
					OFFSET -3.148289 0.000000 0.000000
					CHANNELS 3 Zrotation Yrotation Xrotation 
					JOINT rForeArm
					{
						OFFSET -10.266159 0.000000 0.000000
						CHANNELS 3 Yrotation Zrotation Xrotation 
						JOINT rHand
						{
							OFFSET -8.349810 0.000000 0.000000
							CHANNELS 3 Zrotation Yrotation Xrotation 
							End Site
							{
								OFFSET -4.106464 0.000000 0.000000
							}
						}
					}
				}
			}
		}
	}
	JOINT lThigh
	{
		OFFSET 5.338403 -1.642589 1.368821
		CHANNELS 3 Xrotation Zrotation Yrotation 
		JOINT lShin
		{
			OFFSET -2.053232 -20.121670 0.000000
			CHANNELS 3 Xrotation Zrotation Yrotation 
			JOINT lFoot
			{
				OFFSET 0.000000 -19.300380 -1.231939
				CHANNELS 3 Xrotation Yrotation Zrotation 
				End Site
				{
					OFFSET 0.000000 -2.463878 4.653993
				}
			}
		}
	}
	JOINT rThigh
	{
		OFFSET -5.338403 -1.642589 1.368821
		CHANNELS 3 Xrotation Zrotation Yrotation 
		JOINT rShin
		{
			OFFSET 2.053232 -20.121670 0.000000
			CHANNELS 3 Xrotation Zrotation Yrotation 
			JOINT rFoot
			{
				OFFSET 0.000000 -19.300380 -1.231939
				CHANNELS 3 Xrotation Yrotation Zrotation 
				End Site
				{
					OFFSET 0.000000 -2.463878 4.653993
				}
			}
		}
	}
}
MOTION
Frames: 15
Frame Time: 0.049897
0.000000 43.528500 0.000000 0.000000 0.000000 0.000000 0.000000 0.000000 0.000000 0.000000 0.000000 0.000000 0.000000 0.000000 0.000000 0.000000 0.000000 0.000000 0.000000 0.000000 0.000000 0.000000 0.000000 0.000000 0.000000 0.000000 0.000000 0.000000 0.000000 0.000000 0.000000 0.000000 0.000000 0.000000 0.000000 0.000000 0.000000 0.000000 0.000000 0.000000 0.000000 0.000000 0.000000 0.000000 0.000000 0.000000 0.000000 0.000000 0.000000 0.000000 0.000000 0.000000 0.000000 0.000000 0.000000 0.000000 0.000000 0.000000 0.000000 0.000000 
0.519639 4.176517 -14.691287 89.998291 -2.002194 -90.001724 24.375151 6.019336 -1.212093 -32.889507 9.830206 -2.086694 4.788962 -12.500316 6.491783 6.355759 -0.040154 -0.002229 -58.352856 25.183949 75.276657 36.408623 -44.676674 -27.021809 -55.972099 -1.763964 -40.750927 51.733498 -33.041367 -82.050003 19.704353 4.936372 -11.415235 81.598747 0.130396 -4.607792 67.073441 -17.971016 -53.978256 98.667320 -64.829216 -20.576458 -34.394131 2.052653 -0.388214 -0.634165 -5.398858 2.272455 31.399984 2.073864 3.801517 -25.920322 -10.820962 -8.469337 53.648464 23.623083 -2.946155 43.993279 2.316378 -10.398103 
0.345757 4.176517 -14.691287 89.998390 -3.381836 -90.001793 23.104507 6.019409 -1.212034 -29.155329 9.830271 -2.086740 4.758967 -12.376990 6.603797 6.178239 0.127654 -0.351615 -58.186718 25.751856 74.468071 36.042412 -44.376602 -26.751080 -54.858101 -1.787453 -40.727268 51.172012 -33.741638 -82.456207 20.492579 4.225445 -12.667152 81.068649 0.398792 -4.628603 66.282822 -18.008865 -54.258469 97.527534 -64.381493 -19.528021 -33.294270 1.961951 -0.451517 0.514842 -5.301836 2.159606 30.330767 2.148468 3.703277 -24.551109 -10.002586 -7.480200 53.648464 23.623083 -2.946155 43.658211 1.982123 -9.208634 
0.171874 4.176517 -14.691287 89.998528 -4.764713 -90.001892 21.831337 6.019485 -1.211978 -25.350618 9.830339 -2.086782 4.729222 -12.253555 6.715744 5.999466 0.294589 -0.701973 -58.010670 26.318201 73.652870 35.679966 -44.075241 -26.484344 -53.742416 -1.810517 -40.703140 50.611038 -34.446251 -82.858040 21.266790 3.495281 -13.911981 80.538200 0.667100 -4.651910 65.491295 -18.043060 -54.539455 96.424377 -63.924786 -18.516445 -32.192707 1.872345 -0.516646 1.665334 -5.202418 2.048571 29.260101 2.225002 3.606306 -23.164076 -9.203848 -6.468790 53.648464 23.623085 -2.946155 43.329575 1.640312 -8.019011 
-0.002008 4.176517 -14.691287 89.998657 -6.150453 -90.001991 20.555943 6.019561 -1.211923 -21.481964 9.830411 -2.086820 4.699723 -12.130008 6.827624 5.819446 0.460635 -1.053298 -57.824554 26.882778 72.830887 35.321243 -43.772640 -26.221563 -52.625198 -1.833134 -40.678524 50.050556 -35.155006 -83.255394 22.026457 2.746496 -15.149331 80.007401 0.935281 -4.677711 64.698990 -18.073574 -54.821148 95.356789 -63.459637 -17.540617 -31.089638 1.783891 -0.583572 2.817082 -5.100654 1.939429 28.188160 2.303432 3.510659 -21.759756 -8.426216 -5.435700 53.648464 23.623083 -2.946156 43.007610 1.291150 -6.829494 
-0.175891 4.176517 -14.691287 89.998772 -7.538630 -90.002083 19.278643 6.019639 -1.211869 -17.556780 9.830486 -2.086855 4.670470 -12.006348 6.939435 5.638183 0.625775 -1.405586 -57.628193 27.445335 72.001984 34.966190 -43.468815 -25.962681 -51.506683 -1.855291 -40.653446 49.490555 -35.867733 -83.648155 22.771103 1.979743 -16.378864 79.476273 1.203299 -4.706007 63.905975 -18.100393 -55.103432 94.323517 -62.986401 -16.599348 -29.985266 1.696643 -0.652265 3.969854 -4.996600 1.832250 27.115133 2.383723 3.416390 -20.338774 -7.671130 -4.381619 53.648460 23.623081 -2.946154 42.692535 0.934852 -5.640328 
-0.349773 4.176517 -14.691287 89.998909 -8.928859 -90.002182 17.999750 6.019719 -1.211818 -13.583200 9.830566 -2.086884 4.641466 -11.882577 7.051180 5.455682 0.789993 -1.758832 -57.421505 28.005688 71.166069 34.614758 -43.163799 -25.707651 -50.387066 -1.876978 -40.627911 48.930996 -36.584240 -84.036186 23.500259 1.195706 -17.600266 78.944786 1.471115 -4.736800 63.112389 -18.123508 -55.386257 93.323471 -62.505596 -15.691504 -28.879807 1.610656 -0.722692 5.123417 -4.890309 1.727104 26.041212 2.465838 3.323554 -18.901829 -6.939991 -3.307320 53.648460 23.623081 -2.946153 42.384567 0.571644 -4.451764 
-0.523656 4.176517 -14.691287 89.999039 -10.320740 -90.002274 16.719570 6.019798 -1.211768 -9.570035 9.830647 -2.086907 4.612709 -11.758698 7.162860 5.271947 0.953274 -2.113031 -57.204315 28.563608 70.322998 34.266899 -42.857651 -25.456427 -49.266567 -1.898177 -40.601936 48.371819 -37.304283 -84.419373 24.213522 0.395094 -18.813274 78.413002 1.738692 -4.770089 62.318314 -18.142902 -55.669525 92.355476 -62.017570 -14.815935 -27.773443 1.525978 -0.794818 6.277536 -4.781841 1.624061 24.966589 2.549739 3.232206 -17.449715 -6.234153 -2.213667 53.648464 23.623083 -2.946155 42.083923 0.201760 -3.264037 
-0.697538 4.176517 -14.691287 89.999168 -11.713851 -90.002380 15.438437 6.019880 -1.211720 -5.526664 9.830731 -2.086924 4.584200 -11.634715 7.274477 5.086984 1.115600 -2.468178 -56.976490 29.118866 69.472633 33.922531 -42.550346 -25.208931 -48.145409 -1.918875 -40.575539 47.812984 -38.027699 -84.797554 24.910494 -0.421354 -20.017656 77.880890 2.005992 -4.805871 61.523853 -18.158564 -55.953136 91.418419 -61.522766 -13.971497 -26.666389 1.442661 -0.868605 7.431980 -4.671260 1.523187 23.891451 2.635383 3.142394 -15.983322 -5.554911 -1.101618 53.648464 23.623083 -2.946155 41.790791 -0.174555 -2.077383 
-0.871421 4.176517 -14.691287 89.999306 -13.107775 -90.002480 14.156663 6.019963 -1.211674 -1.462903 9.830815 -2.086936 4.555936 -11.510619 7.386026 4.900798 1.276957 -2.824267 -56.737896 29.671244 68.614868 33.581646 -42.241959 -24.965147 -47.023796 -1.939060 -40.548725 47.254444 -38.754269 -85.170616 25.590832 -1.252879 -21.213213 77.348450 2.272976 -4.844147 60.729134 -18.170492 -56.237038 90.511086 -61.021484 -13.157032 -25.558844 1.360754 -0.944015 8.586518 -4.558631 1.424544 22.815989 2.722728 3.054169 -14.503647 -4.903500 0.027782 53.648464 23.623087 -2.946155 41.505363 -0.557046 -0.892030 
-1.045303 4.176517 -14.691288 89.999451 -14.502128 -90.002602 12.874563 6.020046 -1.211629 2.611136 9.830901 -2.086941 4.527921 -11.386420 7.497511 4.713395 1.437327 -3.181294 -56.488396 30.220490 67.749550 33.244179 -41.932514 -24.725019 -45.901939 -1.958720 -40.521515 46.696148 -39.483803 -85.538452 26.254210 -2.098701 -22.399784 76.815712 2.539609 -4.884915 59.934227 -18.178675 -56.521118 89.632454 -60.514172 -12.371455 -24.451021 1.280305 -1.021007 9.740914 -4.444019 1.328193 21.740383 2.811726 2.967579 -13.011748 -4.281072 1.173403 53.648464 23.623085 -2.946157 41.227818 -0.945454 0.291803 
-1.219186 4.176517 -14.691288 89.999588 -15.896477 -90.002708 11.592464 6.020131 -1.211587 6.685176 9.830987 -2.086941 4.500152 -11.262112 7.608932 4.524781 1.596695 -3.539250 -56.227875 30.766413 66.876587 32.910069 -41.622017 -24.488478 -44.780071 -1.977847 -40.493931 46.138012 -40.216072 -85.900887 26.900347 -2.958021 -23.577259 76.282639 2.805850 -4.928172 59.139267 -18.183113 -56.805298 88.781357 -60.001095 -11.613665 -23.343130 1.201359 -1.099538 10.894938 -4.327497 1.234192 20.664827 2.902333 2.882670 -11.508776 -3.688698 2.334027 53.648464 23.623081 -2.946156 40.958324 -1.339509 1.473902 
-1.393068 4.176517 -14.691288 89.999756 -17.290417 -90.002853 10.310688 6.020217 -1.211546 10.748942 9.831074 -2.086934 4.472631 -11.137702 7.720291 4.334960 1.755044 -3.898131 -55.956188 31.308754 65.995834 32.579281 -41.310516 -24.255497 -43.658394 -1.996425 -40.465984 45.579975 -40.950882 -86.257782 27.528975 -3.830026 -24.745527 75.749290 3.071664 -4.973915 58.344357 -18.183805 -57.089500 87.956833 -59.482643 -10.882633 -22.235367 1.123961 -1.179563 12.048353 -4.209134 1.142597 19.589516 2.994498 2.799486 -9.995971 -3.127358 3.508357 53.648464 23.623083 -2.946155 40.697029 -1.738934 2.654059 
-1.566951 4.176517 -14.691288 89.999916 -18.683529 -90.002975 9.029552 6.020302 -1.211508 14.792318 9.831158 -2.086921 4.445356 -11.013188 7.831587 4.143944 1.912359 -4.257931 -55.673222 31.847298 65.107201 32.251747 -40.998020 -24.026011 -42.537113 -2.014444 -40.437683 45.021954 -41.688023 -86.609016 28.139881 -4.713894 -25.904558 75.215652 3.337012 -5.022141 57.549599 -18.180754 -57.373638 87.157761 -58.959061 -10.177306 -21.127945 1.048152 -1.261037 13.200934 -4.089007 1.053458 18.514635 3.088174 2.718072 -8.474643 -2.597927 4.695029 53.648464 23.623083 -2.946155 40.444092 -2.143447 3.832076 
-1.740833 4.176517 -14.691288 90.000069 -20.075405 -90.003105 7.749376 6.020391 -1.211471 18.805483 9.831239 -2.086902 4.418329 -10.888575 7.942824 3.951732 2.068624 -4.618640 -55.378845 32.381794 64.210548 31.927443 -40.684574 -23.799988 -41.416473 -2.031899 -40.409058 44.463844 -42.427273 -86.954407 28.732861 -5.608790 -27.054319 74.681725 3.601857 -5.072847 56.755100 -18.173962 -57.657623 86.383194 -58.430683 -9.496696 -20.021074 0.973974 -1.343912 14.352456 -3.967190 0.966825 17.440369 3.183305 2.638467 -6.946167 -2.101175 5.892603 53.648464 23.623083 -2.946155 40.199627 -2.552761 5.007756 
